<?xml version="1.0" encoding="UTF-8" standalone="no"?>
<!DOCTYPE svg PUBLIC "-//W3C//DTD SVG 1.1//EN" "http://www.w3.org/Graphics/SVG/1.1/DTD/svg11.dtd">
<svg width="100%" height="100%" viewBox="0 0 628 640" version="1.1" xmlns="http://www.w3.org/2000/svg" xmlns:xlink="http://www.w3.org/1999/xlink" xml:space="preserve" xmlns:serif="http://www.serif.com/" style="fill-rule:evenodd;clip-rule:evenodd;stroke-linejoin:round;stroke-miterlimit:2;">
    <g transform="matrix(1,0,0,1,-482.119,-460.006)">
        <g transform="matrix(1,0,0,1,-2684.26,-588.778)">
            <g transform="matrix(1,0,0,1,2748.77,558.275)">
                <path d="M773.374,540.801C764.457,532.369 749.068,518.266 739.2,511.716C725.667,502.734 692.311,490.509 692.311,490.509C692.311,490.509 649.182,497.47 623.281,509.811C615.488,513.525 592.48,523.673 579.905,531.677C554.994,547.533 533.898,562.809 533.898,562.809C533.898,562.809 573.301,573.388 589.724,579.923C603.562,585.428 620.232,594.814 631.755,601.703C670.693,568.369 719.608,546.36 773.374,540.801Z" style="fill:rgb(17,45,78);"/>
            </g>
            <g transform="matrix(1,0,0,1,2748.77,558.275)">
                <path d="M1004.72,639.139C1010.76,646.472 1015.56,652.68 1015.56,652.68C1015.56,652.68 1003.16,628.903 994.127,617.061C983.266,602.82 967.621,584.906 952.196,571.011C936.189,556.59 918.087,542.357 898.083,530.539C878.694,519.084 855.483,508.021 832.461,501.553C808.917,494.938 756.815,490.849 756.815,490.849C756.815,490.849 783.916,509.121 793.601,517.851C800.103,523.713 808.917,533.683 814.153,539.779C891.476,543.849 959.872,581.843 1004.72,639.139Z" style="fill:rgb(17,45,78);"/>
            </g>
            <g transform="matrix(1,0,0,1,2748.77,558.275)">
                <path d="M540.935,794.334C523.36,794.597 500.924,795.033 487.29,795.674C464.46,796.749 417.606,802.841 417.606,802.841C417.606,802.841 420.834,753.89 427.834,728.369C434.572,703.805 446.533,673.102 459.607,649.71C472.187,627.201 506.278,588.017 506.278,588.017C506.278,588.017 546.81,598.841 566.294,606.434C577.143,610.662 594.112,618.94 607.292,625.59C566.952,670.498 542.041,729.539 540.935,794.334Z" style="fill:rgb(17,45,78);"/>
            </g>
            <g transform="matrix(1,0,0,1,2748.77,558.275)">
                <path d="M608.806,973.762C595.596,983.271 576.41,996.765 564.367,1003.82C545.669,1014.78 506.564,1033.56 506.564,1033.56C506.564,1033.56 472.427,992.392 459.688,969.894C447.014,947.509 435.809,919.032 429.114,897.522C423.3,878.841 419.52,840.835 419.52,840.835C419.52,840.835 465.633,832.545 487.945,830.5C501.724,829.238 524.872,828.4 542.51,827.908C548.754,883.8 572.785,934.351 608.806,973.762Z" style="fill:rgb(17,45,78);"/>
            </g>
            <g transform="matrix(1,0,0,1,2748.77,558.275)">
                <path d="M766.951,1056.13C764.06,1062.32 754.543,1082.5 748.564,1092.77C741.801,1104.39 722.397,1130.29 722.397,1130.29C722.397,1130.29 682.015,1127.36 659.268,1121.32C635.426,1114.98 604.424,1102.65 584.799,1092.58C568.786,1084.37 537.154,1059.65 537.154,1059.65C537.154,1059.65 574,1039.46 591.174,1027.53C602.095,1019.95 620.593,1005.77 632.452,996.572C669.715,1028.25 716.031,1049.58 766.951,1056.13Z" style="fill:rgb(17,45,78);"/>
            </g>
            <g transform="matrix(1,0,0,1,2748.77,558.275)">
                <path d="M796.789,1059.61C796.789,1059.61 844.8,1057.17 867.428,1051.28C888.989,1045.67 931.075,1026.51 931.075,1026.51L933.484,1060.97C933.484,1060.97 894.031,1088.24 874.236,1097.68C855.352,1106.68 833.952,1112.66 814.718,1117.6C796.404,1122.31 758.833,1127.34 758.833,1127.34C758.833,1127.34 775.334,1102.22 781.412,1091.3C786.694,1081.82 796.789,1059.61 796.789,1059.61Z" style="fill:rgb(17,45,78);"/>
            </g>
            <g transform="matrix(1,0,0,1,2748.77,558.275)">
                <path d="M1040.37,897.318C1043.31,890.508 1045.36,885.457 1045.36,885.457C1045.36,885.457 1038.16,914.3 1032.58,928.044C1026.67,942.636 1020.53,955.911 1012.41,969.125C1005.34,980.642 994.512,997.513 986.474,1007.49C978.856,1016.95 961.094,1034.9 961.094,1034.9L957.636,1006.94C957.636,1006.94 983.55,984.728 994.59,971.804C1006.04,958.398 1017.88,940.902 1026.35,926.51C1028.53,922.791 1031.03,917.839 1033.47,912.664C1035.93,907.638 1038.23,902.52 1040.37,897.318Z" style="fill:rgb(17,45,78);"/>
            </g>
            <g transform="matrix(-0.935775,0,0,0.921731,4320.71,626.108)">
                <path d="M823.646,545.044C686.94,545.044 575.951,656.032 575.951,792.739C575.951,929.446 686.94,1040.43 823.646,1040.43C960.353,1040.43 1071.34,929.446 1071.34,792.739C1071.34,656.032 960.353,545.044 823.646,545.044ZM823.721,622.363C823.721,622.363 917.071,783.392 936.482,819.869C939.729,825.97 939.932,835.795 939.203,842.664C938.474,849.532 934.603,856.34 931.409,861.269C928.429,865.867 923.464,869.063 919.32,871.661C915.291,874.187 908.3,875.829 904.663,877.847C901.345,879.689 898.506,881.458 896.617,883.915C894.604,886.532 892.809,890.821 892.384,894.277C891.597,900.671 891.895,922.28 891.895,922.28L850.857,963.115C850.857,963.115 849.449,909.04 850.376,895.878C850.569,893.139 851.873,889.877 853.825,887.006C854.999,885.28 857.812,883.22 858.888,882.242C860.121,881.121 862.845,879.912 864.684,879.329C867.116,878.557 870.128,877.571 871.862,876.544C874.906,874.741 877.25,871.621 878.783,869.791C880.62,867.599 881.577,866.062 882.525,862.793C882.981,861.219 883.26,853.961 881.115,848.728C878.662,842.742 873.506,834.763 873.506,834.763L823.426,750.279L766.63,846.822C766.63,846.822 764.645,852.041 764.383,854.881C764.153,857.376 764.675,862.507 765.673,864.806C766.863,867.545 769.377,870.56 771.421,872.683C773.218,874.55 775.966,876.449 778.238,877.696C781.205,879.326 786.826,880.289 789.942,883.03C793.058,885.772 796.314,890.037 796.631,893.994C797.693,907.227 797.254,962.958 797.254,962.958L755.721,922.35C755.721,922.35 755.713,898.734 754.657,892.228C754.057,888.533 751.441,885.548 749.315,882.966C747.554,880.827 744.219,878.879 741.992,877.758C739.588,876.547 730.63,873.701 726.556,871.102C721.683,867.993 716.485,863.812 713.306,858.724C710.126,853.636 708.583,846.032 707.918,839.712C707.23,833.181 708.561,823.49 711.869,817.281C731.242,780.912 823.721,622.363 823.721,622.363Z" style="fill:rgb(255,255,252);"/>
            </g>
        </g>
    </g>
</svg>
